# xmcd
#
# Track frame offsets:
#	150
#	14876
#	29130
#	42950
#	59513
#	73128
#	89498
#	103002
#	115009
#	130073
#	143994
#	162722
#	175951
#	192878
#	206105
#	218719
#	237369
#	257009
#	275379
#	292740
#	306506
#	318740
#	335173
#
# Disc length: 4688 seconds
#
# Revision: 1
# Processed by: cddbd v1.5.2PL0 Copyright (c) Steve Scherf et al.
# Submitted via: audiograbber 1.83.01
#
DISCID=78124e17
DTITLE=Various Artist - CDX 498
DYEAR=2010
DGENRE=Country
TTITLE0=Bomshel - Just Fine 
TTITLE1=Kellie Pickler - Makin' Me Fall In Love Again 
TTITLE2=Kevin Fowler - Pound Sign (#?*!)
TTITLE3=Troy Olsen - Summer Thing 
TTITLE4=Carrie Underwood - Undo It 
TTITLE5=Dierks Bentley - Up On the Ridge 
TTITLE6=Patty Loveless - Drive 
TTITLE7=Wille Nelson - Freight Train Boogie
TTITLE8=Mark Chesnutt - When I Get This Close To You 
TTITLE9=Thompson Square - Let's Fight 
TTITLE10=Sebastian Roberts w. Lorrie Morgan - Dress For the Rain
TTITLE11=Cerrito and Lane Brody - South of the Border 
TTITLE12=Benton Blount - Carolina
TTITLE13=Jerry Cooper - Don't Leave Without Taking the Silver
TTITLE14=Braden Gray - I'm Not Hungover 
TTITLE15=Thea Wescott - Santa Ana Wind
TTITLE16=Darren Kozelsky - Somebody Find Me a Preacher
TTITLE17=Sean Hogan - Suck It Up 
TTITLE18=Vince Hatfield - Through That Glass
TTITLE19=Landon Michael - You're Invited 
TTITLE20=Ray Stevens - Throw the Bums Out 
TTITLE21=Heartland - I Loved Her First 
TTITLE22=Peggy Hoskins and Cancer Survivors - We Light a Candle
EXTD=
EXTT0=
EXTT1=
EXTT2=
EXTT3=
EXTT4=
EXTT5=
EXTT6=
EXTT7=
EXTT8=
EXTT9=
EXTT10=
EXTT11=
EXTT12=
EXTT13=
EXTT14=
EXTT15=
EXTT16=
EXTT17=
EXTT18=
EXTT19=
EXTT20=
EXTT21=
EXTT22=
PLAYORDER=
